<?xml version="1.0" encoding="utf-8"?>
<!-- Generator: Adobe Illustrator 22.0.1, SVG Export Plug-In . SVG Version: 6.00 Build 0)  -->
<svg version="1.1" id="simbolo" xmlns="http://www.w3.org/2000/svg" xmlns:xlink="http://www.w3.org/1999/xlink" x="0px" y="0px"
	 viewBox="0 0 500 500" style="enable-background:new 0 0 500 500;" xml:space="preserve">
<style type="text/css">
	.st0{fill:url(#SVGID_1_);}
</style>
<linearGradient id="SVGID_1_" gradientUnits="userSpaceOnUse" x1="70.39" y1="250.195" x2="430" y2="250.195">
	<stop  offset="0" style="stop-color:#EF8E09"/>
	<stop  offset="1" style="stop-color:#E7501E"/>
</linearGradient>
<path class="st0" d="M407.5,250.4l22.5-22.6l-27.3-16.4l16.1-27.5l-30.5-9.1l8.8-30.6l-31.8-1.2l0.9-31.8L335,118L328,87l-28.5,14.3
	l-14.6-28.3l-24,20.9L239.8,70l-18.1,26.2l-26.4-17.8l-11,29.9l-30-10.7l-3.2,31.7l-31.7-2.9l4.8,31.5l-31.4,5.1l12.5,29.3
	l-29.2,12.7l19.4,25.3L70.4,250l25.1,19.7L76,294.9l29.2,12.8L92.6,337l31.4,5.2l-4.9,31.5l31.7-2.8l3.1,31.7l30-10.6l10.9,29.9
	l26.4-17.8l18,26.3l21.2-23.8l24,21l14.6-28.3l28.4,14.4l7.1-31l31.1,6.8l-0.8-31.8l31.8-1.1l-8.7-30.6l30.6-9l-16.1-27.5l27.4-16.3
	L407.5,250.4z M242.1,161.8c0-13.7,12.7-2.6,22.7,1.3c0,0,26.6,13.1,42,21c8.7,4.5,5.2,8,2.9,9.5c-13.3,6.2-26.4,10.8-34.1,10.8
	c-0.1,0-0.3,0-0.4,0c-5.8-0.1-21.2-5.1-28.4-9.2l-4.5-2.2V161.8z M279.8,344.8c-10,2.1-31.8-2.9-40.9-8.2l-67.4-34.8
	c-1.8-1.2-5.2-3.3-5.2-10.4v-98c0-13.7,12.7-2.7,22.7,1.2l51.4,25c8.3,4.7,25.7,7.5,34.3,7.7c34.1,1,60.5-21.1,60.5-21.1v93.7
	C336.3,324.8,303,340,279.8,344.8z"/>
</svg>
