<svg id="Capa_1" data-name="Capa 1" xmlns="http://www.w3.org/2000/svg" xmlns:xlink="http://www.w3.org/1999/xlink" viewBox="0 0 180 45.52"><defs><style>.cls-1{fill:#fff;}.cls-2{fill:#53575a;}.cls-3{fill:url(#Nueva_muestra_de_degradado_2);}.cls-4{fill:#888b8d;}</style><linearGradient id="Nueva_muestra_de_degradado_2" x1="18.26" y1="22.76" x2="50.75" y2="22.76" gradientUnits="userSpaceOnUse"><stop offset="0" stop-color="#ef8e07"/><stop offset="1" stop-color="#e7501d"/></linearGradient></defs><title>etiqueta-premium_02_Mesa de trabajo 1</title><polygon class="cls-1" points="177.71 43.3 180 41.01 177.71 38.72 180 36.43 177.71 34.14 180 31.85 177.71 29.56 180 27.26 177.71 24.97 180 22.68 177.71 20.39 180 18.1 177.71 15.81 180 13.52 177.71 11.22 180 8.93 177.71 6.64 180 4.35 177.71 2.06 179.77 0 0 0 0 45.52 179.92 45.52 177.71 43.3"/><path class="cls-2" d="M62.16,30V35.4H58V20h4.17v1.18a3.92,3.92,0,0,1,3.15-1.46c2.77,0,4.9,2,4.9,5.86s-2.13,5.88-4.9,5.88A4,4,0,0,1,62.16,30ZM66,25.54a2,2,0,0,0-2.08-2.18,2.42,2.42,0,0,0-1.71.77V27a2.46,2.46,0,0,0,1.71.77A2,2,0,0,0,66,25.54Z" transform="translate(0 -0.24)"/><path class="cls-2" d="M71.76,31.14V20h4.17v1.23a5,5,0,0,1,3.43-1.56v4a3.28,3.28,0,0,0-1-.12,3.53,3.53,0,0,0-2.48.79v6.85Z" transform="translate(0 -0.24)"/><path class="cls-2" d="M80,25.54a5.83,5.83,0,0,1,6.09-5.86c3.28,0,5.81,2.36,5.81,6.3v.85h-7.6a2.37,2.37,0,0,0,2.41,1.42,5.08,5.08,0,0,0,2.57-.79L91,30a7.88,7.88,0,0,1-4.76,1.39C82.76,31.42,80,29.22,80,25.54Zm6.09-2.69a1.74,1.74,0,0,0-1.83,1.34H88A1.72,1.72,0,0,0,86.12,22.85Z" transform="translate(0 -0.24)"/><path class="cls-2" d="M107.65,31.14V24.61a1.15,1.15,0,0,0-1.28-1.25,2.19,2.19,0,0,0-1.71.88v6.9h-4.17V24.61a1.14,1.14,0,0,0-1.27-1.25,2.18,2.18,0,0,0-1.69.88v6.9H93.36V20h4.17v1.27a5,5,0,0,1,3.7-1.55,3,3,0,0,1,3.22,2,4.84,4.84,0,0,1,3.91-2c2.06,0,3.45,1,3.45,3.36v8.1Z" transform="translate(0 -0.24)"/><path class="cls-2" d="M113.87,16.05a2.34,2.34,0,1,1,2.34,2.34A2.34,2.34,0,0,1,113.87,16.05Zm.26,15.09V20h4.17V31.14Z" transform="translate(0 -0.24)"/><path class="cls-2" d="M128.16,31.14V29.89a5,5,0,0,1-3.85,1.53c-2.59,0-3.7-1.55-3.7-3.48V20h4.17v6.2c0,1.14.6,1.58,1.62,1.58a2.22,2.22,0,0,0,1.76-.88V20h4.16V31.14Z" transform="translate(0 -0.24)"/><path class="cls-2" d="M148.92,31.14V24.61a1.14,1.14,0,0,0-1.27-1.25,2.16,2.16,0,0,0-1.71.88v6.9h-4.17V24.61a1.14,1.14,0,0,0-1.27-1.25,2.15,2.15,0,0,0-1.69.88v6.9h-4.17V20h4.17v1.27a5,5,0,0,1,3.7-1.55,3.05,3.05,0,0,1,3.22,2,4.82,4.82,0,0,1,3.91-2c2.06,0,3.45,1,3.45,3.36v8.1Z" transform="translate(0 -0.24)"/><polygon class="cls-3" points="50.75 21.68 48.62 23.61 50.53 25.76 47.98 27.09 49.29 29.65 46.49 30.3 47.13 33.11 44.26 33.05 44.17 35.92 41.41 35.15 40.61 37.91 38.12 36.48 36.67 38.95 34.61 36.94 32.59 38.98 31.1 36.52 28.63 37.99 27.8 35.24 25.04 36.05 24.92 33.18 22.05 33.28 22.64 30.47 19.84 29.85 21.11 27.27 18.55 25.98 20.42 23.8 18.27 21.91 20.62 20.26 19 17.89 21.69 16.89 20.71 14.19 23.57 13.89 23.29 11.03 26.14 11.45 26.58 8.61 29.23 9.72 30.36 7.08 32.65 8.81 34.41 6.54 36.19 8.79 38.46 7.02 39.63 9.65 42.26 8.5 42.74 11.33 45.58 10.88 45.34 13.74 48.2 14 47.26 16.71 49.96 17.68 48.37 20.07 50.75 21.68"/><path class="cls-1" d="M42.12,19.65V28.1c.1,2.25-2.91,3.62-5,4a7.12,7.12,0,0,1-3.69-.74l-6.08-3.13a1,1,0,0,1-.46-.94V18.5c0-1.23,1.14-.24,2,.11l4.63,2.25a8.54,8.54,0,0,0,3.09.69A8.94,8.94,0,0,0,42.12,19.65Z" transform="translate(0 -0.24)"/><path class="cls-1" d="M34.14,18.66a8.06,8.06,0,0,0,2.56.82h0a8.92,8.92,0,0,0,3.08-1c.21-.13.53-.45-.26-.85-1.38-.71-3.78-1.9-3.78-1.9-.9-.34-2-1.34-2-.11v2.81Z" transform="translate(0 -0.24)"/><path class="cls-4" d="M58.16,13h2.29a4.37,4.37,0,0,1,.87.07,1.18,1.18,0,0,1,.56.27,1.1,1.1,0,0,1,.31.54,3.64,3.64,0,0,1,.09.89,3,3,0,0,1-.1.88.94.94,0,0,1-.31.52,1.15,1.15,0,0,1-.57.25,5.21,5.21,0,0,1-.85.06h-1.3V18.1h-1Zm2.29,2.64a2.31,2.31,0,0,0,.43-.05.52.52,0,0,0,.26-.12.49.49,0,0,0,.12-.26,2.68,2.68,0,0,0,0-.44,2.72,2.72,0,0,0,0-.45.51.51,0,0,0-.11-.29.51.51,0,0,0-.26-.15,2.45,2.45,0,0,0-.44,0h-1.3v1.8Z" transform="translate(0 -0.24)"/><path class="cls-4" d="M66.07,16.73a2.39,2.39,0,0,1-.09.72.81.81,0,0,1-.28.43,1.1,1.1,0,0,1-.5.21,5.51,5.51,0,0,1-.77.05,3.2,3.2,0,0,1-.82-.08.9.9,0,0,1-.49-.29,1.15,1.15,0,0,1-.24-.57,4.43,4.43,0,0,1-.07-.9,6.32,6.32,0,0,1,0-.82,1.31,1.31,0,0,1,.23-.58.94.94,0,0,1,.49-.34,2.74,2.74,0,0,1,.85-.11,4.79,4.79,0,0,1,.7.05,1.28,1.28,0,0,1,.52.18.81.81,0,0,1,.31.39,1.88,1.88,0,0,1,.11.69H65.2a1.58,1.58,0,0,0,0-.34.38.38,0,0,0-.13-.19.43.43,0,0,0-.24-.09,1.9,1.9,0,0,0-.37,0,1.25,1.25,0,0,0-.44.06.38.38,0,0,0-.22.19,1.07,1.07,0,0,0-.08.36c0,.15,0,.35,0,.58s0,.41,0,.56a.75.75,0,0,0,.08.37.35.35,0,0,0,.22.19,1.22,1.22,0,0,0,.44.06l.42,0a.45.45,0,0,0,.23-.11.37.37,0,0,0,.1-.23,2.18,2.18,0,0,0,0-.39Z" transform="translate(0 -0.24)"/><path class="cls-4" d="M69.79,14.67v-.28a.84.84,0,0,0-.05-.35.32.32,0,0,0-.17-.19.94.94,0,0,0-.34-.08l-.53,0a3.44,3.44,0,0,0-.61,0,.68.68,0,0,0-.35.17.61.61,0,0,0-.17.36,3.3,3.3,0,0,0,0,.61v1.14a5.22,5.22,0,0,0,0,.62.78.78,0,0,0,.16.38.62.62,0,0,0,.35.18,3.4,3.4,0,0,0,.63.05l.51,0a.86.86,0,0,0,.36-.09.4.4,0,0,0,.21-.23,1,1,0,0,0,.07-.43v-.28h1v.34a1.93,1.93,0,0,1-.15.89,1,1,0,0,1-.43.45,1.74,1.74,0,0,1-.68.16l-.88.05a3.93,3.93,0,0,1-1.1-.07,1.39,1.39,0,0,1-.66-.35,1.32,1.32,0,0,1-.31-.65,4.48,4.48,0,0,1-.09-1V14.93a3.48,3.48,0,0,1,.12-1A1.29,1.29,0,0,1,67,13.3a1.43,1.43,0,0,1,.68-.31,4.54,4.54,0,0,1,1-.09c.32,0,.6,0,.85,0a1.55,1.55,0,0,1,.65.16,1,1,0,0,1,.41.44,2.1,2.1,0,0,1,.17.86v.28Z" transform="translate(0 -0.24)"/><path class="cls-4" d="M74,14.54a1.08,1.08,0,0,1,.51.31,1.14,1.14,0,0,1,.23.57,6.48,6.48,0,0,1,0,1.76,1.14,1.14,0,0,1-.23.56.94.94,0,0,1-.51.31,3.67,3.67,0,0,1-.9.09,3.56,3.56,0,0,1-.9-.09.94.94,0,0,1-.52-.31,1.25,1.25,0,0,1-.23-.56,7.77,7.77,0,0,1,0-1.76,1.24,1.24,0,0,1,.23-.57,1.07,1.07,0,0,1,.52-.31,3.56,3.56,0,0,1,.9-.09A3.67,3.67,0,0,1,74,14.54Zm-1.36.62a.42.42,0,0,0-.25.18.86.86,0,0,0-.1.37,5.17,5.17,0,0,0,0,.6,5,5,0,0,0,0,.59.86.86,0,0,0,.1.36.52.52,0,0,0,.25.18,1.86,1.86,0,0,0,.46,0,1.82,1.82,0,0,0,.45,0,.52.52,0,0,0,.25-.18.85.85,0,0,0,.11-.36c0-.15,0-.35,0-.59s0-.44,0-.6a.85.85,0,0,0-.11-.37.42.42,0,0,0-.25-.18,1.75,1.75,0,0,0-.45-.05A1.78,1.78,0,0,0,72.61,15.16Z" transform="translate(0 -0.24)"/><path class="cls-4" d="M76.34,14.49V15h0a.73.73,0,0,1,.19-.29,1,1,0,0,1,.27-.17,1.14,1.14,0,0,1,.33-.08,2,2,0,0,1,.34,0,2.07,2.07,0,0,1,.35,0,1.09,1.09,0,0,1,.32.1.7.7,0,0,1,.26.19.67.67,0,0,1,.14.32h0a.79.79,0,0,1,.18-.31.83.83,0,0,1,.27-.19,1.28,1.28,0,0,1,.33-.11l.36,0a2,2,0,0,1,.59.07.74.74,0,0,1,.38.21.75.75,0,0,1,.21.37,1.82,1.82,0,0,1,.07.56V18.1h-.87V15.74a1.19,1.19,0,0,0,0-.29.48.48,0,0,0-.09-.19.42.42,0,0,0-.18-.11.85.85,0,0,0-.29,0,1.27,1.27,0,0,0-.43.06.55.55,0,0,0-.26.18.68.68,0,0,0-.12.3,2.58,2.58,0,0,0,0,.42v2h-.87V15.74a1.19,1.19,0,0,0,0-.29.48.48,0,0,0-.09-.19.42.42,0,0,0-.18-.11.85.85,0,0,0-.29,0,1.27,1.27,0,0,0-.43.06.55.55,0,0,0-.26.18.68.68,0,0,0-.12.3,2.58,2.58,0,0,0,0,.42v2H75.5V14.49Z" transform="translate(0 -0.24)"/><path class="cls-4" d="M82.66,15h0a.87.87,0,0,1,.46-.48,1.92,1.92,0,0,1,.67-.11,1.69,1.69,0,0,1,.78.15A1,1,0,0,1,85,15a1.72,1.72,0,0,1,.16.62c0,.24,0,.5,0,.77a5.2,5.2,0,0,1,0,.72,1.28,1.28,0,0,1-.19.55.87.87,0,0,1-.42.35,2.4,2.4,0,0,1-1.06.1,1.55,1.55,0,0,1-.31-.07.87.87,0,0,1-.26-.16.77.77,0,0,1-.19-.27h0v2h-.87V14.49h.87Zm1.28,2.4a.39.39,0,0,0,.23-.16A.74.74,0,0,0,84.3,17a4.17,4.17,0,0,0,0-.56c0-.2,0-.39,0-.55a1.15,1.15,0,0,0-.07-.4A.51.51,0,0,0,84,15.2a1,1,0,0,0-.46-.09,1.26,1.26,0,0,0-.5.08.53.53,0,0,0-.26.25,1.12,1.12,0,0,0-.09.4c0,.16,0,.35,0,.56a3.53,3.53,0,0,0,0,.5.71.71,0,0,0,.12.33.51.51,0,0,0,.26.19,1.44,1.44,0,0,0,.45.06A1.34,1.34,0,0,0,83.94,17.44Z" transform="translate(0 -0.24)"/><path class="cls-4" d="M88.42,14.54a1.08,1.08,0,0,1,.51.31,1.14,1.14,0,0,1,.23.57,6.48,6.48,0,0,1,0,1.76,1.14,1.14,0,0,1-.23.56.94.94,0,0,1-.51.31,3.67,3.67,0,0,1-.9.09,3.56,3.56,0,0,1-.9-.09.94.94,0,0,1-.52-.31,1.25,1.25,0,0,1-.23-.56,7.77,7.77,0,0,1,0-1.76,1.24,1.24,0,0,1,.23-.57,1.07,1.07,0,0,1,.52-.31,3.56,3.56,0,0,1,.9-.09A3.67,3.67,0,0,1,88.42,14.54Zm-1.36.62a.42.42,0,0,0-.25.18.86.86,0,0,0-.1.37,5.17,5.17,0,0,0,0,.6,5,5,0,0,0,0,.59.86.86,0,0,0,.1.36.52.52,0,0,0,.25.18,1.91,1.91,0,0,0,.46,0,1.82,1.82,0,0,0,.45,0,.52.52,0,0,0,.25-.18.85.85,0,0,0,.11-.36c0-.15,0-.35,0-.59s0-.44,0-.6a.85.85,0,0,0-.11-.37.42.42,0,0,0-.25-.18,1.75,1.75,0,0,0-.45-.05A1.83,1.83,0,0,0,87.06,15.16Z" transform="translate(0 -0.24)"/><path class="cls-4" d="M90.81,14.49V15h0a.81.81,0,0,1,.18-.32.8.8,0,0,1,.27-.18,1.5,1.5,0,0,1,.32-.07l.36,0a2,2,0,0,1,.6.08.87.87,0,0,1,.38.23.9.9,0,0,1,.2.39,2.37,2.37,0,0,1,.06.57V18.1h-.87V15.81a2.73,2.73,0,0,0,0-.32.56.56,0,0,0-.1-.22.37.37,0,0,0-.21-.12,1.09,1.09,0,0,0-.34,0,1.12,1.12,0,0,0-.45.07.49.49,0,0,0-.27.19.71.71,0,0,0-.11.32,2.58,2.58,0,0,0,0,.42v2h-.87V14.49Z" transform="translate(0 -0.24)"/><path class="cls-4" d="M97.27,17a1.51,1.51,0,0,1-.12.67.77.77,0,0,1-.34.35,1.33,1.33,0,0,1-.53.15l-.7,0a3.26,3.26,0,0,1-.84-.09,1,1,0,0,1-.51-.3,1.25,1.25,0,0,1-.25-.57,5.22,5.22,0,0,1-.06-.87,6.48,6.48,0,0,1,0-.83,1.33,1.33,0,0,1,.23-.58,1.06,1.06,0,0,1,.5-.34,3,3,0,0,1,.88-.11,3.53,3.53,0,0,1,.89.09,1,1,0,0,1,.51.32,1.34,1.34,0,0,1,.23.62,6.56,6.56,0,0,1,.06,1H94.78c0,.19,0,.35,0,.49a.63.63,0,0,0,.09.31.4.4,0,0,0,.24.17,1.39,1.39,0,0,0,.45.05h.33a.91.91,0,0,0,.26-.06.33.33,0,0,0,.17-.16A.63.63,0,0,0,96.4,17Zm-.87-1a2.59,2.59,0,0,0,0-.44.45.45,0,0,0-.11-.24.57.57,0,0,0-.25-.1l-.43,0a1.73,1.73,0,0,0-.44,0,.46.46,0,0,0-.24.12.53.53,0,0,0-.1.24c0,.11,0,.24,0,.4Z" transform="translate(0 -0.24)"/><path class="cls-4" d="M98.84,14.49V15h0a.71.71,0,0,1,.18-.32.8.8,0,0,1,.27-.18,1.5,1.5,0,0,1,.32-.07l.36,0a2,2,0,0,1,.6.08.87.87,0,0,1,.38.23.9.9,0,0,1,.2.39,2.37,2.37,0,0,1,.06.57V18.1h-.87V15.81a2.73,2.73,0,0,0,0-.32.56.56,0,0,0-.1-.22.37.37,0,0,0-.21-.12,1.09,1.09,0,0,0-.34,0,1.12,1.12,0,0,0-.45.07.49.49,0,0,0-.27.19.71.71,0,0,0-.11.32,2.58,2.58,0,0,0,0,.42v2H98V14.49Z" transform="translate(0 -0.24)"/><path class="cls-4" d="M101.64,14.49h.46v-.82H103v.82h1.39v.66H103V17c0,.08,0,.16,0,.22a.44.44,0,0,0,0,.15.2.2,0,0,0,.11.09l.21,0a.49.49,0,0,0,.27-.06.32.32,0,0,0,.12-.18.61.61,0,0,0,0-.24v-.28h.76a2.73,2.73,0,0,1,0,.68.94.94,0,0,1-.19.44.67.67,0,0,1-.37.23,2,2,0,0,1-.58.07,2.58,2.58,0,0,1-.6-.05.83.83,0,0,1-.38-.17.68.68,0,0,1-.2-.35,2.12,2.12,0,0,1-.06-.56V15.15h-.46Z" transform="translate(0 -0.24)"/><path class="cls-4" d="M108.22,17a1.51,1.51,0,0,1-.12.67.77.77,0,0,1-.34.35,1.33,1.33,0,0,1-.53.15l-.7,0a3.26,3.26,0,0,1-.84-.09,1,1,0,0,1-.51-.3,1.25,1.25,0,0,1-.25-.57,5.22,5.22,0,0,1-.06-.87,6.48,6.48,0,0,1,0-.83,1.33,1.33,0,0,1,.23-.58,1,1,0,0,1,.51-.34,2.88,2.88,0,0,1,.87-.11,3.53,3.53,0,0,1,.89.09,1,1,0,0,1,.51.32,1.34,1.34,0,0,1,.23.62,6.56,6.56,0,0,1,.06,1h-2.49c0,.19,0,.35,0,.49a.63.63,0,0,0,.09.31.4.4,0,0,0,.24.17,1.39,1.39,0,0,0,.45.05h.33a.91.91,0,0,0,.26-.06.33.33,0,0,0,.17-.16.63.63,0,0,0,.06-.31Zm-.87-1a2.59,2.59,0,0,0,0-.44.39.39,0,0,0-.11-.24.57.57,0,0,0-.25-.1l-.43,0a1.73,1.73,0,0,0-.44,0,.39.39,0,0,0-.23.12.38.38,0,0,0-.1.24,2.25,2.25,0,0,0,0,.4Z" transform="translate(0 -0.24)"/><path class="cls-4" d="M111.12,15.48a.83.83,0,0,0,0-.26.25.25,0,0,0-.13-.12.48.48,0,0,0-.22,0h-.62a.6.6,0,0,0-.24,0,.32.32,0,0,0-.16.14.55.55,0,0,0-.06.28.58.58,0,0,0,0,.21.26.26,0,0,0,.12.11.71.71,0,0,0,.26.06l.45,0,.6,0a1.89,1.89,0,0,1,.52.12.75.75,0,0,1,.35.33,1.35,1.35,0,0,1,.13.67,1.08,1.08,0,0,1-.13.58.86.86,0,0,1-.36.32,1.78,1.78,0,0,1-.54.14c-.2,0-.42,0-.65,0h-.67a1.52,1.52,0,0,1-.52-.13.72.72,0,0,1-.34-.35,1.75,1.75,0,0,1-.11-.68h.86a2,2,0,0,0,0,.31.32.32,0,0,0,.12.18.48.48,0,0,0,.23.07,2.18,2.18,0,0,0,.39,0h.34a1,1,0,0,0,.26,0,.32.32,0,0,0,.16-.14.6.6,0,0,0,.06-.29,1.25,1.25,0,0,0,0-.21.22.22,0,0,0-.1-.15.71.71,0,0,0-.27-.09,4.8,4.8,0,0,0-.51,0,5.66,5.66,0,0,1-.8,0,1.07,1.07,0,0,1-.48-.17.54.54,0,0,1-.22-.34,2.12,2.12,0,0,1-.06-.56,1.1,1.1,0,0,1,.12-.57.78.78,0,0,1,.35-.3,1.37,1.37,0,0,1,.52-.12l.65,0,.54,0a1.31,1.31,0,0,1,.5.12.83.83,0,0,1,.37.3,1,1,0,0,1,.14.59Z" transform="translate(0 -0.24)"/></svg>